<svg enable-background="new 0 0 511.733 511.733" viewBox="0 0 511.733 511.733" xmlns="http://www.w3.org/2000/svg"><path d="m450.998 511.733v-267.733c-76.8-75.733-119.467-118.4-195.2-195.2-75.733 75.733-118.4 118.4-195.2 195.2v267.733z" fill="#ffd15c"/><path d="m501.131 231.2-220.8-220.8c-13.867-13.867-35.2-13.867-49.067 0l-220.8 220.8c-13.867 13.867-13.867 35.2 0 49.067s36.267 13.867 50.133 0l195.2-195.2 196.267 196.267c13.867 13.867 36.267 13.867 50.133 0 12.801-14.934 12.801-36.267-1.066-50.134z" fill="#f3705a"/><path d="m194.998 366.667h120.533v145.067h-120.533z" fill="#415a6b"/><circle cx="255.798" cy="247.2" fill="#415a6b" r="75.733"/><circle cx="255.798" cy="247.2" fill="#8ad7f8" r="53.333"/></svg>