<svg enable-background="new 0 0 511.212 511.212" viewBox="0 0 511.212 511.212" xmlns="http://www.w3.org/2000/svg"><path d="m510.522 479.206-54.4-251.733c-2.133-10.667-18.133-19.2-36.267-19.2h-329.6c-18.133 0-34.133 8.533-36.267 19.2l-53.332 251.733c-4.267 17.067 12.8 32 36.267 32h438.4c23.466 0 39.466-14.933 35.199-32z" fill="#f3f3f3"/><path d="m418.789 230.673h-326.4l-41.6 242.133h409.6z" fill="#ffd15d"/><g fill="#435b6c"><path d="m148.922 386.406c1.067-2.133 2.133-4.267 4.267-7.467l-11.733-2.133c-1.067 3.2-3.2 5.333-4.267 7.467h-1.067c-12.8 1.067-22.4 8.533-22.4 17.067s10.667 14.933 23.467 13.867c12.8-1.067 22.4-8.533 22.4-18.133-1.067-4.268-5.333-8.535-10.667-10.668z"/><path d="m162.789 343.739 10.667 4.267c-2.133 2.133-4.267 4.267-6.4 7.467l-10.667-3.2c2.133-4.267 4.267-6.4 6.4-8.534z"/><path d="m149.989 359.739 11.733 3.2c-2.133 3.2-3.2 5.333-5.333 8.533l-11.733-3.2c2.133-3.199 4.266-6.399 5.333-8.533z"/><path d="m183.056 329.873 5.333 7.467h-1.067c-2.133 1.067-4.267 2.133-6.4 4.267l-9.6-5.333c3.2-2.133 6.4-4.267 9.6-5.333 1.067-1.068 2.134-1.068 2.134-1.068z"/><path d="m274.789 321.339 9.6 4.267c-2.133 2.133-6.4 4.267-9.6 6.4l-7.467-6.4c3.2 0 5.334-2.133 7.467-4.267z"/><path d="m199.056 327.739c4.267 0 9.6 1.067 12.8 1.067l-3.2 7.467c-5.333-1.067-8.533-1.067-11.733-1.067z"/><path d="m298.256 293.606 8.533 5.333c-1.067 0-1.067 1.067-2.133 1.067-2.133 1.067-3.2 3.2-4.267 4.267l-10.667-4.267c1.067-1.067 3.2-3.2 5.333-4.267 1.067 0 2.134-1.066 3.201-2.133z"/><path d="m257.722 329.873 4.267 7.467c-4.267 1.067-8.533 2.133-13.867 2.133l-2.133-8.533c5.333 1.066 8.533-.001 11.733-1.067z"/><path d="m383.589 281.873c-2.133-6.4-12.8-11.733-23.467-10.667-9.6 1.067-16 5.333-17.067 10.667-3.2 0-7.467 1.067-10.667 2.133l3.2 7.467c3.2-1.067 6.4-1.067 9.6-1.067 4.267 5.333 12.8 8.533 21.333 7.467 11.735-2.134 18.135-8.534 17.068-16z"/><path d="m224.656 330.939c4.267 1.067 7.467 1.067 11.733 1.067l-2.133 8.533c-4.267 0-8.533-1.067-12.8-1.067z"/><path d="m319.589 285.073 5.333 6.4c-3.2 1.067-6.4 2.133-9.6 3.2l-6.4-6.4c3.2-1.067 6.4-2.134 10.667-3.2z"/><path d="m284.389 308.539 11.733 3.2c-1.067 1.067-1.067 2.133-2.133 3.2-1.067 1.067-1.067 2.133-2.133 4.267l-11.733-3.2c1.067-1.067 1.067-2.133 2.133-3.2 0-2.133 1.066-3.2 2.133-4.267z"/></g><path d="m354.789 40.806c-54.4-54.4-144-54.4-198.4 0s-54.4 144 0 198.4l99.2 99.2 99.2-99.2c54.4-55.467 54.4-144 0-198.4z" fill="#f3705b"/><path d="m255.589 237.073c-53.333 0-97.067-43.733-97.067-97.067 0-54.4 43.733-98.133 97.067-98.133s97.067 43.733 97.067 97.067c0 54.399-43.734 98.133-97.067 98.133z" fill="#fff"/><path d="m257.722 214.673-22.4-54.4-55.466-22.4 125.866-49.067z" fill="#ffd15d"/></svg>