<svg enable-background="new 0 0 507.9 507.9" viewBox="0 0 507.9 507.9" xmlns="http://www.w3.org/2000/svg"><path d="m311.1 188.6c.5-4.8.8-9.7.8-14.7 0-5.3-.3-10.5-.9-15.6l28.1-19.6-12-36.7-34.3.8c-5.1-8.7-11-16.9-17.8-24.3l11.3-32.5-31.3-22.7-27.3 20.8c-9.1-4.1-18.7-7.3-28.8-9.4l-9.9-32.7h-38.6l-9.9 32.7c-10.3 2.2-20.2 5.5-29.5 9.8l-27.6-20.6-31.1 22.8 11.5 32.4c-6.7 7.5-12.6 15.6-17.7 24.4l-34.3-.6-11.8 36.9 28.2 19.4c-.5 4.8-.8 9.7-.8 14.7 0 5.3.3 10.5.9 15.6l-28.1 19.6 12 36.7 34.3-.8c5.1 8.7 11 16.9 17.8 24.3l-11.3 32.5 31.3 22.7 27.3-20.8c9.1 4.1 18.7 7.3 28.8 9.4l9.9 32.7h38.7l9.9-32.7c10.3-2.2 20.2-5.5 29.5-9.8l27.4 20.6 31.1-22.9-11.5-32.4c6.7-7.5 12.6-15.6 17.7-24.4l34.3.6 11.8-36.8zm-141.5 82c-53.4 0-96.7-43.3-96.7-96.7s43.3-96.7 96.7-96.7 96.7 43.3 96.7 96.7c.1 53.4-43.2 96.7-96.7 96.7z" fill="#40596b"/><circle cx="169.6" cy="173.9" fill="#ffd15c" r="53.6"/><path d="m487.1 389c.4-3.6.6-7.2.6-10.9 0-3.9-.2-7.8-.7-11.6l20.8-14.6-8.9-27.3-25.5.6c-3.8-6.5-8.2-12.5-13.2-18.1l8.4-24.1-23.2-16.8-20.4 15.5c-6.8-3-13.9-5.4-21.4-7l-7.4-24.3h-28.7l-7.4 24.3c-7.7 1.6-15 4.1-21.9 7.3l-20.4-15.3-23.1 17 8.5 24.1c-5 5.6-9.4 11.6-13.1 18.1l-25.5-.4-8.8 27.3 20.9 14.4c-.4 3.6-.6 7.2-.6 10.9 0 3.9.2 7.8.7 11.6l-20.8 14.6 8.9 27.3 25.5-.6c3.8 6.5 8.2 12.5 13.2 18.1l-8.4 24.1 23.2 16.8 20.3-15.4c6.8 3 13.9 5.4 21.4 7l7.4 24.3h28.7l7.4-24.3c7.7-1.6 15-4.1 21.9-7.3l20.4 15.3 23.1-17-8.5-24.1c5-5.6 9.4-11.6 13.1-18.1l25.5.4 8.8-27.3zm-105.1 60.9c-39.7 0-71.8-32.2-71.8-71.8 0-39.7 32.2-71.8 71.8-71.8s71.8 32.2 71.8 71.8c0 39.7-32.1 71.8-71.8 71.8z" fill="#40596b"/><circle cx="382" cy="378.1" fill="#ff7058" r="39.8"/></svg>