<svg enable-background="new 0 0 513.232 513.232" viewBox="0 0 513.232 513.232" xmlns="http://www.w3.org/2000/svg"><path d="m477.736 276.192c0 77.12-62.512 139.648-139.648 139.648s-139.648-62.512-139.648-139.648 139.648-276.176 139.648-276.176 139.648 199.056 139.648 276.176z" fill="#27b2cc"/><path d="m380.2 340.88c0 95.184-77.168 172.352-172.352 172.352s-172.352-77.152-172.352-172.352 172.352-340.88 172.352-340.88 172.352 245.696 172.352 340.88z" fill="#4cc6e5"/><path d="m348.2 340.88c2.048 17.792 9.856 53.216-35.504 104.848-45.776 40.416-76.88 38.752-104.848 35.504 27.296-6.032 52.752-9.648 93.552-46.816 37.664-41.104 41.2-68.016 46.8-93.536z" fill="#fff"/></svg>